<?xml version="1.0" encoding="UTF-8"?>
<svg xmlns="http://www.w3.org/2000/svg" xmlns:xlink="http://www.w3.org/1999/xlink" width="27pt" height="27pt" viewBox="0 0 27 27" version="1.1">
<g id="surface1">
<path style=" stroke:none;fill-rule:nonzero;fill:rgb(0%,0%,0%);fill-opacity:1;" d="M 4.53125 1.386719 C 4.339844 1.453125 4.199219 1.566406 4.128906 1.710938 C 4.0625 1.84375 4.0625 2.203125 4.050781 14.113281 C 4.046875 22.445312 4.054688 26.421875 4.078125 26.511719 C 4.152344 26.785156 4.4375 26.996094 4.726562 27 C 5.046875 27 4.898438 27.160156 8.984375 22.394531 C 11.09375 19.9375 12.820312 17.933594 12.835938 17.9375 C 12.851562 17.945312 14.578125 19.953125 16.679688 22.40625 C 20.0625 26.355469 20.519531 26.875 20.664062 26.9375 C 20.96875 27.074219 21.34375 26.949219 21.507812 26.652344 L 21.585938 26.515625 L 21.585938 14.191406 C 21.585938 5.570312 21.574219 1.839844 21.546875 1.769531 C 21.5 1.644531 21.359375 1.492188 21.21875 1.414062 C 21.117188 1.355469 20.476562 1.351562 12.882812 1.347656 C 6.21875 1.339844 4.632812 1.347656 4.53125 1.386719 Z M 20.25 13.59375 L 20.25 24.484375 L 20.148438 24.382812 C 20.09375 24.320312 18.539062 22.511719 16.691406 20.355469 C 14.847656 18.199219 13.296875 16.398438 13.25 16.359375 C 13.136719 16.257812 13 16.207031 12.832031 16.207031 C 12.496094 16.207031 12.671875 16.019531 8.976562 20.332031 C 7.085938 22.539062 5.507812 24.375 5.476562 24.414062 C 5.421875 24.484375 5.417969 23.890625 5.414062 13.59375 L 5.414062 2.707031 L 20.25 2.707031 Z M 20.25 13.59375 "/>
</g>
</svg>
